<?xml version="1.0" encoding="UTF-8"?>
<!DOCTYPE svg PUBLIC "-//W3C//DTD SVG 1.1//EN" "http://www.w3.org/Graphics/SVG/1.1/DTD/svg11.dtd">
<!-- Creator: CorelDRAW 2017 -->
<svg xmlns="http://www.w3.org/2000/svg" xml:space="preserve" width="45.4118mm" height="28.697mm" version="1.1" style="shape-rendering:geometricPrecision; text-rendering:geometricPrecision; image-rendering:optimizeQuality; fill-rule:evenodd; clip-rule:evenodd"
viewBox="0 0 2814 1778"
 xmlns:xlink="http://www.w3.org/1999/xlink">
 <defs>
  <style type="text/css">
   <![CDATA[
    .fil0 {fill:white}
    .fil1 {fill:white;fill-rule:nonzero}
   ]]>
  </style>
 </defs>
 <g id="Layer_x0020_1">
  <metadata id="CorelCorpID_0Corel-Layer"/>
  <path class="fil0" d="M138 322l2676 0 0 1309c0,75 -60,147 -138,147l-2539 0c-80,0 -138,-69 -138,-147l0 -1160c0,-77 58,-150 138,-150zm2551 125l-2534 0c-8,0 -31,4 -31,15l0 1176c0,9 24,14 31,14l2500 0c7,0 32,-5 34,-14l0 -1120 0 -72z"/>
  <path class="fil0" d="M861 1413l-397 0c-34,0 -50,-28 -36,-61l269 -664 155 0 -223 550c-8,19 2,35 21,35l269 0 -57 141zm717 0l-65 0 25 -62c0,-1 1,-2 1,-3l263 -661 157 0 -118 299 225 0c36,0 59,35 45,71l-117 296c-15,38 -36,59 -74,59l-264 0 -77 0zm-235 0l-323 0c-36,0 -53,-29 -39,-65l150 -371 157 0 -109 273c-5,12 1,22 13,22l101 0c13,0 28,-11 33,-23l109 -271 152 0 -149 368c-15,37 -58,68 -96,68zm440 -280l-21 53 -34 86 21 0 1 0 101 0c11,0 24,-8 30,-18l38 -98 3 -8c4,-12 -2,-21 -14,-21l-108 0 -1 0 -15 0 -2 6 0 0zm457 -157l152 0 -176 436 -155 0 179 -436z"/>
  <path class="fil0" d="M2358 688l43 0 -18 43 -43 0 18 -43zm97 0l-43 0 -18 43 43 0 18 -43zm11 0l43 0 -18 43 -43 0 18 -43zm-130 53l43 0 -18 43 -43 0 18 -43zm-22 53l43 0 -18 43 -43 0 18 -43zm119 -53l-43 0 -18 43 43 0 18 -43zm-22 53l-43 0 -18 43 43 0 18 -43zm32 -53l43 0 -18 43 -43 0 18 -43zm-22 53l43 0 -18 43 -43 0 18 -43z"/>
  <path class="fil1" d="M2290 0c23,0 46,6 68,18 22,12 39,29 51,50 12,22 18,45 18,69 0,24 -6,47 -18,68 -12,22 -29,38 -51,51 -22,12 -44,18 -68,18 -24,0 -47,-6 -68,-18 -22,-12 -38,-29 -51,-51 -12,-22 -18,-44 -18,-68 0,-24 6,-47 18,-69 12,-22 29,-39 51,-50 22,-12 44,-18 68,-18zm0 27c-19,0 -37,5 -54,14 -17,9 -31,23 -41,41 -10,18 -15,36 -15,55 0,19 5,37 15,55 10,17 23,31 41,41 17,10 36,15 55,15 19,0 37,-5 55,-15 17,-10 31,-23 41,-41 10,-17 15,-36 15,-55 0,-19 -5,-38 -15,-55 -10,-18 -24,-31 -41,-41 -17,-9 -35,-14 -54,-14zm-62 183l0 -145 29 0c28,0 43,0 46,0 10,1 17,3 23,6 5,3 10,8 14,14 4,6 5,13 5,21 0,10 -3,19 -10,27 -7,7 -16,12 -29,14 4,2 8,3 10,5 2,2 6,6 10,11 1,1 5,7 11,18l17 29 -37 0 -12 -24c-8,-16 -15,-26 -20,-30 -5,-4 -12,-6 -20,-6l-8 0 0 60 -30 0zm30 -83l12 0c17,0 28,-1 32,-2 4,-1 7,-4 10,-7 2,-3 4,-7 4,-11 0,-4 -1,-8 -3,-11 -2,-3 -6,-5 -10,-7 -4,-1 -15,-2 -31,-2l-12 0 0 39zm404 -127c23,0 46,6 68,18 22,12 39,29 51,51 12,22 18,45 18,69 0,24 -6,47 -18,68 -12,22 -29,38 -51,51 -22,12 -44,18 -68,18 -24,0 -47,-6 -68,-18 -22,-12 -38,-29 -51,-51 -12,-22 -18,-44 -18,-68 0,-24 6,-47 18,-69 12,-22 29,-39 51,-51 22,-12 44,-18 68,-18zm0 27c-19,0 -37,5 -54,14 -17,9 -31,23 -41,40 -10,18 -15,36 -15,55 0,19 5,37 15,55 10,17 23,31 41,41 17,10 36,15 55,15 19,0 37,-5 55,-15 17,-10 31,-23 41,-41 10,-17 15,-36 15,-55 0,-19 -5,-38 -15,-55 -10,-18 -23,-31 -41,-41 -17,-9 -35,-14 -54,-14zm33 130l29 10c-5,15 -12,27 -22,35 -10,8 -23,12 -37,12 -20,0 -37,-7 -50,-20 -13,-13 -19,-32 -19,-55 0,-15 3,-29 9,-41 6,-12 14,-21 25,-27 11,-6 23,-9 36,-9 15,0 27,3 37,10 10,7 17,18 23,33l-29 7c-3,-9 -8,-15 -13,-19 -5,-4 -12,-6 -19,-6 -11,0 -20,4 -26,12 -7,8 -10,21 -10,38 0,17 3,30 10,39 7,8 15,12 24,12 8,0 15,-2 21,-7 6,-5 10,-13 13,-24z"/>
 </g>
</svg>
